<?xml version="1.0" standalone="no"?>
<svg xmlns:xlink="http://www.w3.org/1999/xlink" id="wave" style="transform:rotate(0deg); transition: 0.3s" viewBox="0 0 1440 240" version="1.1" xmlns="http://www.w3.org/2000/svg"><defs><linearGradient id="sw-gradient-0" x1="0" x2="0" y1="1" y2="0"><stop stop-color="rgba(243, 106, 62, 1)" offset="0%"/><stop stop-color="rgba(255, 179, 11, 1)" offset="100%"/></linearGradient></defs><path style="transform:translate(0, 0px); opacity:1" fill="url(#sw-gradient-0)" d="M0,48L60,144L120,48L180,72L240,168L300,216L360,24L420,24L480,72L540,48L600,96L660,96L720,192L780,120L840,72L900,192L960,144L1020,48L1080,48L1140,192L1200,72L1260,48L1320,192L1380,72L1440,216L1440,240L1380,240L1320,240L1260,240L1200,240L1140,240L1080,240L1020,240L960,240L900,240L840,240L780,240L720,240L660,240L600,240L540,240L480,240L420,240L360,240L300,240L240,240L180,240L120,240L60,240L0,240Z"/><defs><linearGradient id="sw-gradient-1" x1="0" x2="0" y1="1" y2="0"><stop stop-color="rgba(243, 106, 62, 1)" offset="0%"/><stop stop-color="rgba(255, 179, 11, 1)" offset="100%"/></linearGradient></defs><path style="transform:translate(0, 50px); opacity:0.9" fill="url(#sw-gradient-1)" d="M0,192L60,24L120,168L180,144L240,144L300,192L360,48L420,168L480,48L540,96L600,24L660,216L720,96L780,216L840,216L900,0L960,144L1020,72L1080,96L1140,0L1200,168L1260,96L1320,72L1380,72L1440,48L1440,240L1380,240L1320,240L1260,240L1200,240L1140,240L1080,240L1020,240L960,240L900,240L840,240L780,240L720,240L660,240L600,240L540,240L480,240L420,240L360,240L300,240L240,240L180,240L120,240L60,240L0,240Z"/><defs><linearGradient id="sw-gradient-2" x1="0" x2="0" y1="1" y2="0"><stop stop-color="rgba(243, 106, 62, 1)" offset="0%"/><stop stop-color="rgba(255, 179, 11, 1)" offset="100%"/></linearGradient></defs><path style="transform:translate(0, 100px); opacity:0.8" fill="url(#sw-gradient-2)" d="M0,120L60,216L120,96L180,48L240,72L300,24L360,24L420,24L480,24L540,192L600,216L660,216L720,192L780,144L840,96L900,192L960,120L1020,192L1080,192L1140,216L1200,168L1260,120L1320,48L1380,120L1440,24L1440,240L1380,240L1320,240L1260,240L1200,240L1140,240L1080,240L1020,240L960,240L900,240L840,240L780,240L720,240L660,240L600,240L540,240L480,240L420,240L360,240L300,240L240,240L180,240L120,240L60,240L0,240Z"/><defs><linearGradient id="sw-gradient-3" x1="0" x2="0" y1="1" y2="0"><stop stop-color="rgba(243, 106, 62, 1)" offset="0%"/><stop stop-color="rgba(255, 179, 11, 1)" offset="100%"/></linearGradient></defs><path style="transform:translate(0, 150px); opacity:0.7" fill="url(#sw-gradient-3)" d="M0,48L60,24L120,0L180,72L240,144L300,0L360,0L420,96L480,72L540,48L600,24L660,216L720,168L780,192L840,72L900,192L960,48L1020,168L1080,192L1140,96L1200,0L1260,144L1320,72L1380,216L1440,72L1440,240L1380,240L1320,240L1260,240L1200,240L1140,240L1080,240L1020,240L960,240L900,240L840,240L780,240L720,240L660,240L600,240L540,240L480,240L420,240L360,240L300,240L240,240L180,240L120,240L60,240L0,240Z"/></svg>