<?xml version="1.0" standalone="no"?>
<svg xmlns:xlink="http://www.w3.org/1999/xlink" id="wave" style="transform:rotate(0deg); transition: 0.3s" viewBox="0 0 1440 290" version="1.1" xmlns="http://www.w3.org/2000/svg"><defs><linearGradient id="sw-gradient-0" x1="0" x2="0" y1="1" y2="0"><stop stop-color="rgba(243, 106, 62, 1)" offset="0%"/><stop stop-color="rgba(255, 179, 11, 1)" offset="100%"/></linearGradient></defs><path style="transform:translate(0, 0px); opacity:1" fill="url(#sw-gradient-0)" d="M0,58L60,0L120,261L180,145L240,261L300,174L360,174L420,29L480,29L540,203L600,232L660,261L720,87L780,58L840,145L900,261L960,145L1020,174L1080,58L1140,29L1200,174L1260,87L1320,116L1380,58L1440,87L1440,290L1380,290L1320,290L1260,290L1200,290L1140,290L1080,290L1020,290L960,290L900,290L840,290L780,290L720,290L660,290L600,290L540,290L480,290L420,290L360,290L300,290L240,290L180,290L120,290L60,290L0,290Z"/><defs><linearGradient id="sw-gradient-1" x1="0" x2="0" y1="1" y2="0"><stop stop-color="rgba(243, 106, 62, 1)" offset="0%"/><stop stop-color="rgba(255, 179, 11, 1)" offset="100%"/></linearGradient></defs><path style="transform:translate(0, 50px); opacity:0.9" fill="url(#sw-gradient-1)" d="M0,29L60,116L120,87L180,145L240,203L300,87L360,203L420,261L480,145L540,174L600,29L660,261L720,145L780,261L840,145L900,145L960,29L1020,87L1080,232L1140,145L1200,174L1260,87L1320,0L1380,116L1440,87L1440,290L1380,290L1320,290L1260,290L1200,290L1140,290L1080,290L1020,290L960,290L900,290L840,290L780,290L720,290L660,290L600,290L540,290L480,290L420,290L360,290L300,290L240,290L180,290L120,290L60,290L0,290Z"/><defs><linearGradient id="sw-gradient-2" x1="0" x2="0" y1="1" y2="0"><stop stop-color="rgba(243, 106, 62, 1)" offset="0%"/><stop stop-color="rgba(255, 179, 11, 1)" offset="100%"/></linearGradient></defs><path style="transform:translate(0, 100px); opacity:0.8" fill="url(#sw-gradient-2)" d="M0,203L60,203L120,232L180,29L240,58L300,29L360,87L420,0L480,261L540,87L600,145L660,58L720,174L780,87L840,174L900,203L960,203L1020,203L1080,203L1140,29L1200,174L1260,58L1320,261L1380,232L1440,145L1440,290L1380,290L1320,290L1260,290L1200,290L1140,290L1080,290L1020,290L960,290L900,290L840,290L780,290L720,290L660,290L600,290L540,290L480,290L420,290L360,290L300,290L240,290L180,290L120,290L60,290L0,290Z"/><defs><linearGradient id="sw-gradient-3" x1="0" x2="0" y1="1" y2="0"><stop stop-color="rgba(243, 106, 62, 1)" offset="0%"/><stop stop-color="rgba(255, 179, 11, 1)" offset="100%"/></linearGradient></defs><path style="transform:translate(0, 150px); opacity:0.7" fill="url(#sw-gradient-3)" d="M0,232L60,261L120,0L180,116L240,0L300,116L360,261L420,0L480,203L540,58L600,174L660,0L720,29L780,145L840,145L900,87L960,87L1020,174L1080,58L1140,174L1200,58L1260,261L1320,232L1380,0L1440,116L1440,290L1380,290L1320,290L1260,290L1200,290L1140,290L1080,290L1020,290L960,290L900,290L840,290L780,290L720,290L660,290L600,290L540,290L480,290L420,290L360,290L300,290L240,290L180,290L120,290L60,290L0,290Z"/></svg>